<?xml version="1.0" encoding="iso-8859-1"?>
<!-- Generator: Adobe Illustrator 19.0.0, SVG Export Plug-In . SVG Version: 6.00 Build 0)  -->
<svg version="1.1" id="Layer_1" xmlns="http://www.w3.org/2000/svg" xmlns:xlink="http://www.w3.org/1999/xlink" x="0px" y="0px"
	 viewBox="0 0 460 460" style="enable-background:new 0 0 460 460;" xml:space="preserve">
<g id="XMLID_1826_">
	<path id="XMLID_1540_" style="fill:#BC3C28;" d="M330.657,70H230V10h100.657c3.993,0,6.375,4.451,4.16,7.774L320,40l14.818,22.226
		C337.033,65.549,334.651,70,330.657,70z"/>
	<path id="XMLID_1539_" style="fill:#7A6649;" d="M240,140h-20V10c0-5.523,4.477-10,10-10l0,0c5.523,0,10,4.477,10,10V140z"/>
	<path id="XMLID_1537_" style="fill:#F49445;" d="M390,280c0,88.366-71.634,160-160,160S70,368.366,70,280s71.634-160,160-160
		S390,191.634,390,280z"/>
	<path id="XMLID_1536_" style="fill:#FFA757;" d="M322.192,212.192c0,50.916-41.276,92.192-92.192,92.192
		s-92.192-41.276-92.192-92.192S179.084,120,230,120S322.192,161.276,322.192,212.192z"/>
	<path id="XMLID_1535_" style="fill:#80B7AE;" d="M460,342.568L460,342.568c0,0,0,37.968,0,40l0,0
		C460,425.333,425.333,460,382.568,460H77.432C34.667,460,0,425.333,0,382.568l0,0c0-2.032,0-40,0-40l0,0
		C0,335.627,5.627,330,12.568,330c12.65,18.129,33.649,30,57.432,30c21.372,0,40.494-9.589,53.333-24.686
		C136.173,350.411,155.295,360,176.667,360s40.494-9.589,53.333-24.686C242.84,350.411,261.962,360,283.333,360
		c21.372,0,40.494-9.589,53.333-24.686C349.506,350.411,368.628,360,390,360c23.783,0,44.782-11.871,57.432-30
		C454.373,330,460,335.627,460,342.568z"/>
	<path id="XMLID_1534_" style="fill:#97CEC3;" d="M447.432,370L447.432,370c6.941,0,12.568,5.627,12.568,12.568l0,0
		C460,425.333,425.333,460,382.568,460H77.432C34.667,460,0,425.333,0,382.568l0,0C0,375.627,5.627,370,12.568,370l0,0
		c12.65,18.129,33.649,30,57.432,30c21.372,0,40.494-9.589,53.333-24.686C136.173,390.411,155.295,400,176.667,400
		s40.494-9.589,53.333-24.686C242.84,390.411,261.962,400,283.333,400c21.372,0,40.494-9.589,53.333-24.686
		C349.506,390.411,368.628,400,390,400C413.783,400,434.782,388.129,447.432,370z"/>
</g>
<g>
</g>
<g>
</g>
<g>
</g>
<g>
</g>
<g>
</g>
<g>
</g>
<g>
</g>
<g>
</g>
<g>
</g>
<g>
</g>
<g>
</g>
<g>
</g>
<g>
</g>
<g>
</g>
<g>
</g>
</svg>
